<svg width="16" height="20" viewBox="0 0 16 20" fill="none" xmlns="http://www.w3.org/2000/svg">
<path d="M8.152 16.096C7.288 16.096 6.51467 15.9093 5.832 15.536C5.16 15.1627 4.632 14.6507 4.248 14C3.864 13.3493 3.672 12.6027 3.672 11.76C3.672 10.9173 3.864 10.1707 4.248 9.52C4.632 8.86933 5.16 8.36267 5.832 8C6.51467 7.62667 7.288 7.44 8.152 7.44C8.92 7.44 9.60267 7.59467 10.2 7.904C10.808 8.20267 11.2773 8.65067 11.608 9.248L10.44 10C10.1627 9.584 9.82133 9.28 9.416 9.088C9.02133 8.88533 8.59467 8.784 8.136 8.784C7.58133 8.784 7.08533 8.90667 6.648 9.152C6.21067 9.39733 5.864 9.744 5.608 10.192C5.352 10.6293 5.224 11.152 5.224 11.76C5.224 12.368 5.352 12.896 5.608 13.344C5.864 13.792 6.21067 14.1387 6.648 14.384C7.08533 14.6293 7.58133 14.752 8.136 14.752C8.59467 14.752 9.02133 14.656 9.416 14.464C9.82133 14.2613 10.1627 13.952 10.44 13.536L11.608 14.272C11.2773 14.8587 10.808 15.312 10.2 15.632C9.60267 15.9413 8.92 16.096 8.152 16.096Z" fill="white"/>
<circle cx="8" cy="12" r="7.5" stroke="white"/>
</svg>
